<svg width="360" height="360" viewBox="0 0 360 360" fill="none" xmlns="http://www.w3.org/2000/svg">
<path d="M51.0363 122C50.7251 122.415 52.5074 126.127 52.8186 126.826C86.5031 202.23 156.281 280.918 217.097 284.861C234.391 285.981 250.999 280.529 263.803 261.767C249.634 262.965 235.634 260.825 222 256.04C188.123 244.15 156.502 215.926 130.14 181.978C116.47 164.376 102.71 144.421 92.3958 122H72H51.0363Z" fill="#1B3C73"/>
<path d="M124.375 122C128.502 131.098 133.841 139.45 139.072 147.071C161.786 180.119 191.757 210.451 221.369 226.174C236.847 234.395 264.374 244.231 279.733 233.98C286.589 229.398 293.04 215.916 296.208 205.731C275.691 213.273 253.774 204.221 234.95 191.34C211.029 174.977 190.371 149.53 171.495 122H124.379H124.375Z" fill="#D71313"/>
<path d="M309 147.051C305.516 154.165 303.086 159.419 296.839 160.223C281.396 162.214 260.166 138.686 249.945 122H204.962C204.774 123.154 205.269 123.318 205.597 123.984C212.935 138.798 232.037 158.305 242.164 166.367C257.514 178.583 298.374 203.351 307.499 168.141C307.857 166.756 309 161.654 309 160.573V147.058V147.051Z" fill="#1B3C73"/>
<circle cx="180" cy="180" r="174.5" stroke="#1B3C73" stroke-width="11"/>
</svg>
