<svg width="288" height="155" viewBox="0 0 288 155" fill="none" xmlns="http://www.w3.org/2000/svg">
<path d="M0.0405566 155C-0.306899 154.605 1.68264 151.076 2.03009 150.411C39.6314 78.7072 117.523 3.88137 185.41 0.132557C204.715 -0.93316 223.254 4.25124 237.548 22.0926C182.431 18.1244 129.613 52.6912 88.3418 97.9653C73.0823 114.703 57.7229 133.679 46.2093 155H0.0405566Z" fill="#1B3C73"/>
<path d="M81.9067 155C86.5141 146.349 92.4732 138.406 98.3133 131.159C123.668 99.7332 157.124 70.8899 190.179 55.9385C207.457 48.1212 238.185 38.7679 255.33 48.5161C262.983 52.873 270.185 65.693 273.721 75.3784C250.818 68.2068 226.353 76.814 205.339 89.0635C178.637 104.623 155.577 128.821 134.506 155H81.9115H81.9067Z" fill="#D71313"/>
<path d="M288 131.178C284.111 124.414 281.398 119.418 274.425 118.653C257.186 116.76 233.488 139.133 222.079 155H171.864C171.655 153.903 172.207 153.746 172.573 153.113C180.765 139.027 202.088 120.477 213.392 112.81C230.527 101.194 276.139 77.6415 286.325 111.124C286.724 112.44 288 117.292 288 118.321V131.172V131.178Z" fill="#1B3C73"/>
</svg>
